# Vintage CRT television - generated for VRChat
mtllib crt_tv.mtl
v -0.22000 0.03500 0.23000
v 0.22000 0.03500 0.23000
v 0.22000 0.12000 0.23000
v -0.22000 0.12000 0.23000
v -0.22000 0.33000 0.23000
v 0.22000 0.33000 0.23000
v 0.22000 0.41500 0.23000
v -0.22000 0.41500 0.23000
v -0.22000 0.12000 0.23000
v -0.18500 0.12000 0.23000
v -0.18500 0.33000 0.23000
v -0.22000 0.33000 0.23000
v 0.09500 0.12000 0.23000
v 0.22000 0.12000 0.23000
v 0.22000 0.33000 0.23000
v 0.09500 0.33000 0.23000
v -0.18500 0.12000 0.23000
v 0.09500 0.12000 0.23000
v 0.09500 0.12000 0.20200
v -0.18500 0.12000 0.20200
v 0.09500 0.12000 0.23000
v 0.09500 0.33000 0.23000
v 0.09500 0.33000 0.20200
v 0.09500 0.12000 0.20200
v 0.09500 0.33000 0.23000
v -0.18500 0.33000 0.23000
v -0.18500 0.33000 0.20200
v 0.09500 0.33000 0.20200
v -0.18500 0.33000 0.23000
v -0.18500 0.12000 0.23000
v -0.18500 0.12000 0.20200
v -0.18500 0.33000 0.20200
v -0.22000 0.03500 -0.10000
v 0.22000 0.03500 -0.10000
v 0.22000 0.03500 0.23000
v -0.22000 0.03500 0.23000
v 0.22000 0.03500 -0.10000
v 0.22000 0.41500 -0.10000
v 0.22000 0.41500 0.23000
v 0.22000 0.03500 0.23000
v 0.22000 0.41500 -0.10000
v -0.22000 0.41500 -0.10000
v -0.22000 0.41500 0.23000
v 0.22000 0.41500 0.23000
v -0.22000 0.41500 -0.10000
v -0.22000 0.03500 -0.10000
v -0.22000 0.03500 0.23000
v -0.22000 0.41500 0.23000
v -0.18500 0.13500 -0.23000
v 0.06500 0.13500 -0.23000
v 0.22000 0.03500 -0.10000
v -0.22000 0.03500 -0.10000
v 0.06500 0.13500 -0.23000
v 0.06500 0.31500 -0.23000
v 0.22000 0.41500 -0.10000
v 0.22000 0.03500 -0.10000
v 0.06500 0.31500 -0.23000
v -0.18500 0.31500 -0.23000
v -0.22000 0.41500 -0.10000
v 0.22000 0.41500 -0.10000
v -0.18500 0.31500 -0.23000
v -0.18500 0.13500 -0.23000
v -0.22000 0.03500 -0.10000
v -0.22000 0.41500 -0.10000
v -0.18500 0.31500 -0.23000
v 0.06500 0.31500 -0.23000
v 0.06500 0.13500 -0.23000
v -0.18500 0.13500 -0.23000
v -0.19300 0.00000 -0.14200
v -0.13700 0.00000 -0.14200
v -0.13700 0.03700 -0.14200
v -0.19300 0.03700 -0.14200
v -0.19300 0.03700 -0.19800
v -0.13700 0.03700 -0.19800
v -0.13700 0.00000 -0.19800
v -0.19300 0.00000 -0.19800
v -0.19300 0.00000 -0.19800
v -0.19300 0.00000 -0.14200
v -0.19300 0.03700 -0.14200
v -0.19300 0.03700 -0.19800
v -0.13700 0.03700 -0.19800
v -0.13700 0.03700 -0.14200
v -0.13700 0.00000 -0.14200
v -0.13700 0.00000 -0.19800
v -0.19300 0.03700 -0.14200
v -0.13700 0.03700 -0.14200
v -0.13700 0.03700 -0.19800
v -0.19300 0.03700 -0.19800
v -0.19300 0.00000 -0.19800
v -0.13700 0.00000 -0.19800
v -0.13700 0.00000 -0.14200
v -0.19300 0.00000 -0.14200
v -0.19300 0.00000 0.19800
v -0.13700 0.00000 0.19800
v -0.13700 0.03700 0.19800
v -0.19300 0.03700 0.19800
v -0.19300 0.03700 0.14200
v -0.13700 0.03700 0.14200
v -0.13700 0.00000 0.14200
v -0.19300 0.00000 0.14200
v -0.19300 0.00000 0.14200
v -0.19300 0.00000 0.19800
v -0.19300 0.03700 0.19800
v -0.19300 0.03700 0.14200
v -0.13700 0.03700 0.14200
v -0.13700 0.03700 0.19800
v -0.13700 0.00000 0.19800
v -0.13700 0.00000 0.14200
v -0.19300 0.03700 0.19800
v -0.13700 0.03700 0.19800
v -0.13700 0.03700 0.14200
v -0.19300 0.03700 0.14200
v -0.19300 0.00000 0.14200
v -0.13700 0.00000 0.14200
v -0.13700 0.00000 0.19800
v -0.19300 0.00000 0.19800
v 0.13700 0.00000 -0.14200
v 0.19300 0.00000 -0.14200
v 0.19300 0.03700 -0.14200
v 0.13700 0.03700 -0.14200
v 0.13700 0.03700 -0.19800
v 0.19300 0.03700 -0.19800
v 0.19300 0.00000 -0.19800
v 0.13700 0.00000 -0.19800
v 0.13700 0.00000 -0.19800
v 0.13700 0.00000 -0.14200
v 0.13700 0.03700 -0.14200
v 0.13700 0.03700 -0.19800
v 0.19300 0.03700 -0.19800
v 0.19300 0.03700 -0.14200
v 0.19300 0.00000 -0.14200
v 0.19300 0.00000 -0.19800
v 0.13700 0.03700 -0.14200
v 0.19300 0.03700 -0.14200
v 0.19300 0.03700 -0.19800
v 0.13700 0.03700 -0.19800
v 0.13700 0.00000 -0.19800
v 0.19300 0.00000 -0.19800
v 0.19300 0.00000 -0.14200
v 0.13700 0.00000 -0.14200
v 0.13700 0.00000 0.19800
v 0.19300 0.00000 0.19800
v 0.19300 0.03700 0.19800
v 0.13700 0.03700 0.19800
v 0.13700 0.03700 0.14200
v 0.19300 0.03700 0.14200
v 0.19300 0.00000 0.14200
v 0.13700 0.00000 0.14200
v 0.13700 0.00000 0.14200
v 0.13700 0.00000 0.19800
v 0.13700 0.03700 0.19800
v 0.13700 0.03700 0.14200
v 0.19300 0.03700 0.14200
v 0.19300 0.03700 0.19800
v 0.19300 0.00000 0.19800
v 0.19300 0.00000 0.14200
v 0.13700 0.03700 0.19800
v 0.19300 0.03700 0.19800
v 0.19300 0.03700 0.14200
v 0.13700 0.03700 0.14200
v 0.13700 0.00000 0.14200
v 0.19300 0.00000 0.14200
v 0.19300 0.00000 0.19800
v 0.13700 0.00000 0.19800
v -0.18500 0.12000 0.20200
v -0.16500 0.12000 0.20200
v -0.14500 0.12000 0.20200
v -0.12500 0.12000 0.20200
v -0.10500 0.12000 0.20200
v -0.08500 0.12000 0.20200
v -0.06500 0.12000 0.20200
v -0.04500 0.12000 0.20200
v -0.02500 0.12000 0.20200
v -0.00500 0.12000 0.20200
v 0.01500 0.12000 0.20200
v 0.03500 0.12000 0.20200
v 0.05500 0.12000 0.20200
v 0.07500 0.12000 0.20200
v 0.09500 0.12000 0.20200
v -0.18500 0.13909 0.20200
v -0.16500 0.13909 0.20340
v -0.14500 0.13909 0.20459
v -0.12500 0.13909 0.20556
v -0.10500 0.13909 0.20632
v -0.08500 0.13909 0.20686
v -0.06500 0.13909 0.20718
v -0.04500 0.13909 0.20729
v -0.02500 0.13909 0.20718
v -0.00500 0.13909 0.20686
v 0.01500 0.13909 0.20632
v 0.03500 0.13909 0.20556
v 0.05500 0.13909 0.20459
v 0.07500 0.13909 0.20340
v 0.09500 0.13909 0.20200
v -0.18500 0.15818 0.20200
v -0.16500 0.15818 0.20453
v -0.14500 0.15818 0.20666
v -0.12500 0.15818 0.20841
v -0.10500 0.15818 0.20977
v -0.08500 0.15818 0.21074
v -0.06500 0.15818 0.21133
v -0.04500 0.15818 0.21152
v -0.02500 0.15818 0.21133
v -0.00500 0.15818 0.21074
v 0.01500 0.15818 0.20977
v 0.03500 0.15818 0.20841
v 0.05500 0.15818 0.20666
v 0.07500 0.15818 0.20453
v 0.09500 0.15818 0.20200
v -0.18500 0.17727 0.20200
v -0.16500 0.17727 0.20537
v -0.14500 0.17727 0.20822
v -0.12500 0.17727 0.21055
v -0.10500 0.17727 0.21236
v -0.08500 0.17727 0.21366
v -0.06500 0.17727 0.21444
v -0.04500 0.17727 0.21469
v -0.02500 0.17727 0.21444
v -0.00500 0.17727 0.21366
v 0.01500 0.17727 0.21236
v 0.03500 0.17727 0.21055
v 0.05500 0.17727 0.20822
v 0.07500 0.17727 0.20537
v 0.09500 0.17727 0.20200
v -0.18500 0.19636 0.20200
v -0.16500 0.19636 0.20593
v -0.14500 0.19636 0.20925
v -0.12500 0.19636 0.21197
v -0.10500 0.19636 0.21409
v -0.08500 0.19636 0.21560
v -0.06500 0.19636 0.21651
v -0.04500 0.19636 0.21681
v -0.02500 0.19636 0.21651
v -0.00500 0.19636 0.21560
v 0.01500 0.19636 0.21409
v 0.03500 0.19636 0.21197
v 0.05500 0.19636 0.20925
v 0.07500 0.19636 0.20593
v 0.09500 0.19636 0.20200
v -0.18500 0.21545 0.20200
v -0.16500 0.21545 0.20621
v -0.14500 0.21545 0.20977
v -0.12500 0.21545 0.21269
v -0.10500 0.21545 0.21495
v -0.08500 0.21545 0.21657
v -0.06500 0.21545 0.21754
v -0.04500 0.21545 0.21787
v -0.02500 0.21545 0.21754
v -0.00500 0.21545 0.21657
v 0.01500 0.21545 0.21495
v 0.03500 0.21545 0.21269
v 0.05500 0.21545 0.20977
v 0.07500 0.21545 0.20621
v 0.09500 0.21545 0.20200
v -0.18500 0.23455 0.20200
v -0.16500 0.23455 0.20621
v -0.14500 0.23455 0.20977
v -0.12500 0.23455 0.21269
v -0.10500 0.23455 0.21495
v -0.08500 0.23455 0.21657
v -0.06500 0.23455 0.21754
v -0.04500 0.23455 0.21787
v -0.02500 0.23455 0.21754
v -0.00500 0.23455 0.21657
v 0.01500 0.23455 0.21495
v 0.03500 0.23455 0.21269
v 0.05500 0.23455 0.20977
v 0.07500 0.23455 0.20621
v 0.09500 0.23455 0.20200
v -0.18500 0.25364 0.20200
v -0.16500 0.25364 0.20593
v -0.14500 0.25364 0.20925
v -0.12500 0.25364 0.21197
v -0.10500 0.25364 0.21409
v -0.08500 0.25364 0.21560
v -0.06500 0.25364 0.21651
v -0.04500 0.25364 0.21681
v -0.02500 0.25364 0.21651
v -0.00500 0.25364 0.21560
v 0.01500 0.25364 0.21409
v 0.03500 0.25364 0.21197
v 0.05500 0.25364 0.20925
v 0.07500 0.25364 0.20593
v 0.09500 0.25364 0.20200
v -0.18500 0.27273 0.20200
v -0.16500 0.27273 0.20537
v -0.14500 0.27273 0.20822
v -0.12500 0.27273 0.21055
v -0.10500 0.27273 0.21236
v -0.08500 0.27273 0.21366
v -0.06500 0.27273 0.21444
v -0.04500 0.27273 0.21469
v -0.02500 0.27273 0.21444
v -0.00500 0.27273 0.21366
v 0.01500 0.27273 0.21236
v 0.03500 0.27273 0.21055
v 0.05500 0.27273 0.20822
v 0.07500 0.27273 0.20537
v 0.09500 0.27273 0.20200
v -0.18500 0.29182 0.20200
v -0.16500 0.29182 0.20453
v -0.14500 0.29182 0.20666
v -0.12500 0.29182 0.20841
v -0.10500 0.29182 0.20977
v -0.08500 0.29182 0.21074
v -0.06500 0.29182 0.21133
v -0.04500 0.29182 0.21152
v -0.02500 0.29182 0.21133
v -0.00500 0.29182 0.21074
v 0.01500 0.29182 0.20977
v 0.03500 0.29182 0.20841
v 0.05500 0.29182 0.20666
v 0.07500 0.29182 0.20453
v 0.09500 0.29182 0.20200
v -0.18500 0.31091 0.20200
v -0.16500 0.31091 0.20340
v -0.14500 0.31091 0.20459
v -0.12500 0.31091 0.20556
v -0.10500 0.31091 0.20632
v -0.08500 0.31091 0.20686
v -0.06500 0.31091 0.20718
v -0.04500 0.31091 0.20729
v -0.02500 0.31091 0.20718
v -0.00500 0.31091 0.20686
v 0.01500 0.31091 0.20632
v 0.03500 0.31091 0.20556
v 0.05500 0.31091 0.20459
v 0.07500 0.31091 0.20340
v 0.09500 0.31091 0.20200
v -0.18500 0.33000 0.20200
v -0.16500 0.33000 0.20200
v -0.14500 0.33000 0.20200
v -0.12500 0.33000 0.20200
v -0.10500 0.33000 0.20200
v -0.08500 0.33000 0.20200
v -0.06500 0.33000 0.20200
v -0.04500 0.33000 0.20200
v -0.02500 0.33000 0.20200
v -0.00500 0.33000 0.20200
v 0.01500 0.33000 0.20200
v 0.03500 0.33000 0.20200
v 0.05500 0.33000 0.20200
v 0.07500 0.33000 0.20200
v 0.09500 0.33000 0.20200
v 0.19050 0.30500 0.22600
v 0.18654 0.30500 0.25100
v 0.18723 0.31932 0.22600
v 0.18366 0.31760 0.25100
v 0.17808 0.33080 0.22600
v 0.17561 0.32770 0.25100
v 0.16484 0.33717 0.22600
v 0.16396 0.33331 0.25100
v 0.15016 0.33717 0.22600
v 0.15104 0.33331 0.25100
v 0.13692 0.33080 0.22600
v 0.13939 0.32770 0.25100
v 0.12777 0.31932 0.22600
v 0.13134 0.31760 0.25100
v 0.12450 0.30500 0.22600
v 0.12846 0.30500 0.25100
v 0.12777 0.29068 0.22600
v 0.13134 0.29240 0.25100
v 0.13692 0.27920 0.22600
v 0.13939 0.28230 0.25100
v 0.15016 0.27283 0.22600
v 0.15104 0.27669 0.25100
v 0.16484 0.27283 0.22600
v 0.16396 0.27669 0.25100
v 0.17808 0.27920 0.22600
v 0.17561 0.28230 0.25100
v 0.18723 0.29068 0.22600
v 0.18366 0.29240 0.25100
v 0.18654 0.30500 0.25100
v 0.18366 0.31760 0.25100
v 0.17561 0.32770 0.25100
v 0.16396 0.33331 0.25100
v 0.15104 0.33331 0.25100
v 0.13939 0.32770 0.25100
v 0.13134 0.31760 0.25100
v 0.12846 0.30500 0.25100
v 0.13134 0.29240 0.25100
v 0.13939 0.28230 0.25100
v 0.15104 0.27669 0.25100
v 0.16396 0.27669 0.25100
v 0.17561 0.28230 0.25100
v 0.18366 0.29240 0.25100
v 0.19050 0.22500 0.22600
v 0.18654 0.22500 0.25100
v 0.18723 0.23932 0.22600
v 0.18366 0.23760 0.25100
v 0.17808 0.25080 0.22600
v 0.17561 0.24770 0.25100
v 0.16484 0.25717 0.22600
v 0.16396 0.25331 0.25100
v 0.15016 0.25717 0.22600
v 0.15104 0.25331 0.25100
v 0.13692 0.25080 0.22600
v 0.13939 0.24770 0.25100
v 0.12777 0.23932 0.22600
v 0.13134 0.23760 0.25100
v 0.12450 0.22500 0.22600
v 0.12846 0.22500 0.25100
v 0.12777 0.21068 0.22600
v 0.13134 0.21240 0.25100
v 0.13692 0.19920 0.22600
v 0.13939 0.20230 0.25100
v 0.15016 0.19283 0.22600
v 0.15104 0.19669 0.25100
v 0.16484 0.19283 0.22600
v 0.16396 0.19669 0.25100
v 0.17808 0.19920 0.22600
v 0.17561 0.20230 0.25100
v 0.18723 0.21068 0.22600
v 0.18366 0.21240 0.25100
v 0.18654 0.22500 0.25100
v 0.18366 0.23760 0.25100
v 0.17561 0.24770 0.25100
v 0.16396 0.25331 0.25100
v 0.15104 0.25331 0.25100
v 0.13939 0.24770 0.25100
v 0.13134 0.23760 0.25100
v 0.12846 0.22500 0.25100
v 0.13134 0.21240 0.25100
v 0.13939 0.20230 0.25100
v 0.15104 0.19669 0.25100
v 0.16396 0.19669 0.25100
v 0.17561 0.20230 0.25100
v 0.18366 0.21240 0.25100
v 0.17850 0.14500 0.22600
v 0.17598 0.14500 0.25100
v 0.17642 0.15411 0.22600
v 0.17415 0.15302 0.25100
v 0.17059 0.16142 0.22600
v 0.16902 0.15945 0.25100
v 0.16217 0.16547 0.22600
v 0.16161 0.16302 0.25100
v 0.15283 0.16547 0.22600
v 0.15339 0.16302 0.25100
v 0.14441 0.16142 0.22600
v 0.14598 0.15945 0.25100
v 0.13858 0.15411 0.22600
v 0.14085 0.15302 0.25100
v 0.13650 0.14500 0.22600
v 0.13902 0.14500 0.25100
v 0.13858 0.13589 0.22600
v 0.14085 0.13698 0.25100
v 0.14441 0.12858 0.22600
v 0.14598 0.13055 0.25100
v 0.15283 0.12453 0.22600
v 0.15339 0.12698 0.25100
v 0.16217 0.12453 0.22600
v 0.16161 0.12698 0.25100
v 0.17059 0.12858 0.22600
v 0.16902 0.13055 0.25100
v 0.17642 0.13589 0.22600
v 0.17415 0.13698 0.25100
v 0.17598 0.14500 0.25100
v 0.17415 0.15302 0.25100
v 0.16902 0.15945 0.25100
v 0.16161 0.16302 0.25100
v 0.15339 0.16302 0.25100
v 0.14598 0.15945 0.25100
v 0.14085 0.15302 0.25100
v 0.13902 0.14500 0.25100
v 0.14085 0.13698 0.25100
v 0.14598 0.13055 0.25100
v 0.15339 0.12698 0.25100
v 0.16161 0.12698 0.25100
v 0.16902 0.13055 0.25100
v 0.17415 0.13698 0.25100
v -0.03110 0.41813 -0.13000
v -0.29610 0.74813 -0.26000
v -0.03159 0.41640 -0.13338
v -0.29659 0.74640 -0.26338
v -0.03408 0.41386 -0.13478
v -0.29908 0.74386 -0.26478
v -0.03711 0.41198 -0.13338
v -0.30211 0.74198 -0.26338
v -0.03890 0.41187 -0.13000
v -0.30390 0.74187 -0.26000
v -0.03841 0.41360 -0.12662
v -0.30341 0.74360 -0.25662
v -0.03592 0.41614 -0.12522
v -0.30092 0.74614 -0.25522
v -0.03289 0.41802 -0.12662
v -0.29789 0.74802 -0.25662
v -0.05300 0.40900 -0.11200
v -0.01700 0.40900 -0.11200
v -0.01700 0.43100 -0.11200
v -0.05300 0.43100 -0.11200
v -0.05300 0.43100 -0.14800
v -0.01700 0.43100 -0.14800
v -0.01700 0.40900 -0.14800
v -0.05300 0.40900 -0.14800
v -0.05300 0.40900 -0.14800
v -0.05300 0.40900 -0.11200
v -0.05300 0.43100 -0.11200
v -0.05300 0.43100 -0.14800
v -0.01700 0.43100 -0.14800
v -0.01700 0.43100 -0.11200
v -0.01700 0.40900 -0.11200
v -0.01700 0.40900 -0.14800
v -0.05300 0.43100 -0.11200
v -0.01700 0.43100 -0.11200
v -0.01700 0.43100 -0.14800
v -0.05300 0.43100 -0.14800
v -0.05300 0.40900 -0.14800
v -0.01700 0.40900 -0.14800
v -0.01700 0.40900 -0.11200
v -0.05300 0.40900 -0.11200
v 0.03890 0.41187 -0.13000
v 0.30390 0.74187 -0.26000
v 0.03711 0.41198 -0.13338
v 0.30211 0.74198 -0.26338
v 0.03408 0.41386 -0.13478
v 0.29908 0.74386 -0.26478
v 0.03159 0.41640 -0.13338
v 0.29659 0.74640 -0.26338
v 0.03110 0.41813 -0.13000
v 0.29610 0.74813 -0.26000
v 0.03289 0.41802 -0.12662
v 0.29789 0.74802 -0.25662
v 0.03592 0.41614 -0.12522
v 0.30092 0.74614 -0.25522
v 0.03841 0.41360 -0.12662
v 0.30341 0.74360 -0.25662
v 0.01700 0.40900 -0.11200
v 0.05300 0.40900 -0.11200
v 0.05300 0.43100 -0.11200
v 0.01700 0.43100 -0.11200
v 0.01700 0.43100 -0.14800
v 0.05300 0.43100 -0.14800
v 0.05300 0.40900 -0.14800
v 0.01700 0.40900 -0.14800
v 0.01700 0.40900 -0.14800
v 0.01700 0.40900 -0.11200
v 0.01700 0.43100 -0.11200
v 0.01700 0.43100 -0.14800
v 0.05300 0.43100 -0.14800
v 0.05300 0.43100 -0.11200
v 0.05300 0.40900 -0.11200
v 0.05300 0.40900 -0.14800
v 0.01700 0.43100 -0.11200
v 0.05300 0.43100 -0.11200
v 0.05300 0.43100 -0.14800
v 0.01700 0.43100 -0.14800
v 0.01700 0.40900 -0.14800
v 0.05300 0.40900 -0.14800
v 0.05300 0.40900 -0.11200
v 0.01700 0.40900 -0.11200
vt 0.00000 0.00000
vt 1.00000 0.00000
vt 1.00000 0.22368
vt 0.00000 0.22368
vt 0.00000 0.77632
vt 1.00000 0.77632
vt 1.00000 1.00000
vt 0.00000 1.00000
vt 0.00000 0.22368
vt 0.07955 0.22368
vt 0.07955 0.77632
vt 0.00000 0.77632
vt 0.71591 0.22368
vt 1.00000 0.22368
vt 1.00000 0.77632
vt 0.71591 0.77632
vt 0.00000 0.00000
vt 1.00000 0.00000
vt 1.00000 1.00000
vt 0.00000 1.00000
vt 0.00000 0.00000
vt 1.00000 0.00000
vt 1.00000 1.00000
vt 0.00000 1.00000
vt 0.00000 0.00000
vt 1.00000 0.00000
vt 1.00000 1.00000
vt 0.00000 1.00000
vt 0.00000 0.00000
vt 1.00000 0.00000
vt 1.00000 1.00000
vt 0.00000 1.00000
vt 0.00000 1.00000
vt 1.00000 1.00000
vt 1.00000 0.00000
vt 0.00000 0.00000
vt 0.00000 1.00000
vt 1.00000 1.00000
vt 1.00000 0.00000
vt 0.00000 0.00000
vt 0.00000 1.00000
vt 1.00000 1.00000
vt 1.00000 0.00000
vt 0.00000 0.00000
vt 0.00000 1.00000
vt 1.00000 1.00000
vt 1.00000 0.00000
vt 0.00000 0.00000
vt 0.00000 1.00000
vt 1.00000 1.00000
vt 1.00000 0.00000
vt 0.00000 0.00000
vt 0.00000 1.00000
vt 1.00000 1.00000
vt 1.00000 0.00000
vt 0.00000 0.00000
vt 0.00000 1.00000
vt 1.00000 1.00000
vt 1.00000 0.00000
vt 0.00000 0.00000
vt 0.00000 1.00000
vt 1.00000 1.00000
vt 1.00000 0.00000
vt 0.00000 0.00000
vt 0.00000 1.00000
vt 1.00000 1.00000
vt 1.00000 0.00000
vt 0.00000 0.00000
vt 0.00000 0.00000
vt 1.00000 0.00000
vt 1.00000 1.00000
vt 0.00000 1.00000
vt 0.00000 1.00000
vt 1.00000 1.00000
vt 1.00000 0.00000
vt 0.00000 0.00000
vt 0.00000 0.00000
vt 1.00000 0.00000
vt 1.00000 1.00000
vt 0.00000 1.00000
vt 0.00000 1.00000
vt 1.00000 1.00000
vt 1.00000 0.00000
vt 0.00000 0.00000
vt 0.00000 1.00000
vt 1.00000 1.00000
vt 1.00000 0.00000
vt 0.00000 0.00000
vt 0.00000 0.00000
vt 1.00000 0.00000
vt 1.00000 1.00000
vt 0.00000 1.00000
vt 0.00000 0.00000
vt 1.00000 0.00000
vt 1.00000 1.00000
vt 0.00000 1.00000
vt 0.00000 1.00000
vt 1.00000 1.00000
vt 1.00000 0.00000
vt 0.00000 0.00000
vt 0.00000 0.00000
vt 1.00000 0.00000
vt 1.00000 1.00000
vt 0.00000 1.00000
vt 0.00000 1.00000
vt 1.00000 1.00000
vt 1.00000 0.00000
vt 0.00000 0.00000
vt 0.00000 1.00000
vt 1.00000 1.00000
vt 1.00000 0.00000
vt 0.00000 0.00000
vt 0.00000 0.00000
vt 1.00000 0.00000
vt 1.00000 1.00000
vt 0.00000 1.00000
vt 0.00000 0.00000
vt 1.00000 0.00000
vt 1.00000 1.00000
vt 0.00000 1.00000
vt 0.00000 1.00000
vt 1.00000 1.00000
vt 1.00000 0.00000
vt 0.00000 0.00000
vt 0.00000 0.00000
vt 1.00000 0.00000
vt 1.00000 1.00000
vt 0.00000 1.00000
vt 0.00000 1.00000
vt 1.00000 1.00000
vt 1.00000 0.00000
vt 0.00000 0.00000
vt 0.00000 1.00000
vt 1.00000 1.00000
vt 1.00000 0.00000
vt 0.00000 0.00000
vt 0.00000 0.00000
vt 1.00000 0.00000
vt 1.00000 1.00000
vt 0.00000 1.00000
vt 0.00000 0.00000
vt 1.00000 0.00000
vt 1.00000 1.00000
vt 0.00000 1.00000
vt 0.00000 1.00000
vt 1.00000 1.00000
vt 1.00000 0.00000
vt 0.00000 0.00000
vt 0.00000 0.00000
vt 1.00000 0.00000
vt 1.00000 1.00000
vt 0.00000 1.00000
vt 0.00000 1.00000
vt 1.00000 1.00000
vt 1.00000 0.00000
vt 0.00000 0.00000
vt 0.00000 1.00000
vt 1.00000 1.00000
vt 1.00000 0.00000
vt 0.00000 0.00000
vt 0.00000 0.00000
vt 1.00000 0.00000
vt 1.00000 1.00000
vt 0.00000 1.00000
vt 0.00000 0.00000
vt 0.07143 0.00000
vt 0.14286 0.00000
vt 0.21429 0.00000
vt 0.28571 0.00000
vt 0.35714 0.00000
vt 0.42857 0.00000
vt 0.50000 0.00000
vt 0.57143 0.00000
vt 0.64286 0.00000
vt 0.71429 0.00000
vt 0.78571 0.00000
vt 0.85714 0.00000
vt 0.92857 0.00000
vt 1.00000 0.00000
vt 0.00000 0.09091
vt 0.07143 0.09091
vt 0.14286 0.09091
vt 0.21429 0.09091
vt 0.28571 0.09091
vt 0.35714 0.09091
vt 0.42857 0.09091
vt 0.50000 0.09091
vt 0.57143 0.09091
vt 0.64286 0.09091
vt 0.71429 0.09091
vt 0.78571 0.09091
vt 0.85714 0.09091
vt 0.92857 0.09091
vt 1.00000 0.09091
vt 0.00000 0.18182
vt 0.07143 0.18182
vt 0.14286 0.18182
vt 0.21429 0.18182
vt 0.28571 0.18182
vt 0.35714 0.18182
vt 0.42857 0.18182
vt 0.50000 0.18182
vt 0.57143 0.18182
vt 0.64286 0.18182
vt 0.71429 0.18182
vt 0.78571 0.18182
vt 0.85714 0.18182
vt 0.92857 0.18182
vt 1.00000 0.18182
vt 0.00000 0.27273
vt 0.07143 0.27273
vt 0.14286 0.27273
vt 0.21429 0.27273
vt 0.28571 0.27273
vt 0.35714 0.27273
vt 0.42857 0.27273
vt 0.50000 0.27273
vt 0.57143 0.27273
vt 0.64286 0.27273
vt 0.71429 0.27273
vt 0.78571 0.27273
vt 0.85714 0.27273
vt 0.92857 0.27273
vt 1.00000 0.27273
vt 0.00000 0.36364
vt 0.07143 0.36364
vt 0.14286 0.36364
vt 0.21429 0.36364
vt 0.28571 0.36364
vt 0.35714 0.36364
vt 0.42857 0.36364
vt 0.50000 0.36364
vt 0.57143 0.36364
vt 0.64286 0.36364
vt 0.71429 0.36364
vt 0.78571 0.36364
vt 0.85714 0.36364
vt 0.92857 0.36364
vt 1.00000 0.36364
vt 0.00000 0.45455
vt 0.07143 0.45455
vt 0.14286 0.45455
vt 0.21429 0.45455
vt 0.28571 0.45455
vt 0.35714 0.45455
vt 0.42857 0.45455
vt 0.50000 0.45455
vt 0.57143 0.45455
vt 0.64286 0.45455
vt 0.71429 0.45455
vt 0.78571 0.45455
vt 0.85714 0.45455
vt 0.92857 0.45455
vt 1.00000 0.45455
vt 0.00000 0.54545
vt 0.07143 0.54545
vt 0.14286 0.54545
vt 0.21429 0.54545
vt 0.28571 0.54545
vt 0.35714 0.54545
vt 0.42857 0.54545
vt 0.50000 0.54545
vt 0.57143 0.54545
vt 0.64286 0.54545
vt 0.71429 0.54545
vt 0.78571 0.54545
vt 0.85714 0.54545
vt 0.92857 0.54545
vt 1.00000 0.54545
vt 0.00000 0.63636
vt 0.07143 0.63636
vt 0.14286 0.63636
vt 0.21429 0.63636
vt 0.28571 0.63636
vt 0.35714 0.63636
vt 0.42857 0.63636
vt 0.50000 0.63636
vt 0.57143 0.63636
vt 0.64286 0.63636
vt 0.71429 0.63636
vt 0.78571 0.63636
vt 0.85714 0.63636
vt 0.92857 0.63636
vt 1.00000 0.63636
vt 0.00000 0.72727
vt 0.07143 0.72727
vt 0.14286 0.72727
vt 0.21429 0.72727
vt 0.28571 0.72727
vt 0.35714 0.72727
vt 0.42857 0.72727
vt 0.50000 0.72727
vt 0.57143 0.72727
vt 0.64286 0.72727
vt 0.71429 0.72727
vt 0.78571 0.72727
vt 0.85714 0.72727
vt 0.92857 0.72727
vt 1.00000 0.72727
vt 0.00000 0.81818
vt 0.07143 0.81818
vt 0.14286 0.81818
vt 0.21429 0.81818
vt 0.28571 0.81818
vt 0.35714 0.81818
vt 0.42857 0.81818
vt 0.50000 0.81818
vt 0.57143 0.81818
vt 0.64286 0.81818
vt 0.71429 0.81818
vt 0.78571 0.81818
vt 0.85714 0.81818
vt 0.92857 0.81818
vt 1.00000 0.81818
vt 0.00000 0.90909
vt 0.07143 0.90909
vt 0.14286 0.90909
vt 0.21429 0.90909
vt 0.28571 0.90909
vt 0.35714 0.90909
vt 0.42857 0.90909
vt 0.50000 0.90909
vt 0.57143 0.90909
vt 0.64286 0.90909
vt 0.71429 0.90909
vt 0.78571 0.90909
vt 0.85714 0.90909
vt 0.92857 0.90909
vt 1.00000 0.90909
vt 0.00000 1.00000
vt 0.07143 1.00000
vt 0.14286 1.00000
vt 0.21429 1.00000
vt 0.28571 1.00000
vt 0.35714 1.00000
vt 0.42857 1.00000
vt 0.50000 1.00000
vt 0.57143 1.00000
vt 0.64286 1.00000
vt 0.71429 1.00000
vt 0.78571 1.00000
vt 0.85714 1.00000
vt 0.92857 1.00000
vt 1.00000 1.00000
vt 0.00000 0.00000
vt 0.00000 1.00000
vt 0.07143 0.00000
vt 0.07143 1.00000
vt 0.14286 0.00000
vt 0.14286 1.00000
vt 0.21429 0.00000
vt 0.21429 1.00000
vt 0.28571 0.00000
vt 0.28571 1.00000
vt 0.35714 0.00000
vt 0.35714 1.00000
vt 0.42857 0.00000
vt 0.42857 1.00000
vt 0.50000 0.00000
vt 0.50000 1.00000
vt 0.57143 0.00000
vt 0.57143 1.00000
vt 0.64286 0.00000
vt 0.64286 1.00000
vt 0.71429 0.00000
vt 0.71429 1.00000
vt 0.78571 0.00000
vt 0.78571 1.00000
vt 0.85714 0.00000
vt 0.85714 1.00000
vt 0.92857 0.00000
vt 0.92857 1.00000
vt 1.00000 0.50000
vt 0.95048 0.71694
vt 0.81174 0.89092
vt 0.61126 0.98746
vt 0.38874 0.98746
vt 0.18826 0.89092
vt 0.04952 0.71694
vt 0.00000 0.50000
vt 0.04952 0.28306
vt 0.18826 0.10908
vt 0.38874 0.01254
vt 0.61126 0.01254
vt 0.81174 0.10908
vt 0.95048 0.28306
vt 0.00000 0.00000
vt 0.00000 1.00000
vt 0.07143 0.00000
vt 0.07143 1.00000
vt 0.14286 0.00000
vt 0.14286 1.00000
vt 0.21429 0.00000
vt 0.21429 1.00000
vt 0.28571 0.00000
vt 0.28571 1.00000
vt 0.35714 0.00000
vt 0.35714 1.00000
vt 0.42857 0.00000
vt 0.42857 1.00000
vt 0.50000 0.00000
vt 0.50000 1.00000
vt 0.57143 0.00000
vt 0.57143 1.00000
vt 0.64286 0.00000
vt 0.64286 1.00000
vt 0.71429 0.00000
vt 0.71429 1.00000
vt 0.78571 0.00000
vt 0.78571 1.00000
vt 0.85714 0.00000
vt 0.85714 1.00000
vt 0.92857 0.00000
vt 0.92857 1.00000
vt 1.00000 0.50000
vt 0.95048 0.71694
vt 0.81174 0.89092
vt 0.61126 0.98746
vt 0.38874 0.98746
vt 0.18826 0.89092
vt 0.04952 0.71694
vt 0.00000 0.50000
vt 0.04952 0.28306
vt 0.18826 0.10908
vt 0.38874 0.01254
vt 0.61126 0.01254
vt 0.81174 0.10908
vt 0.95048 0.28306
vt 0.00000 0.00000
vt 0.00000 1.00000
vt 0.07143 0.00000
vt 0.07143 1.00000
vt 0.14286 0.00000
vt 0.14286 1.00000
vt 0.21429 0.00000
vt 0.21429 1.00000
vt 0.28571 0.00000
vt 0.28571 1.00000
vt 0.35714 0.00000
vt 0.35714 1.00000
vt 0.42857 0.00000
vt 0.42857 1.00000
vt 0.50000 0.00000
vt 0.50000 1.00000
vt 0.57143 0.00000
vt 0.57143 1.00000
vt 0.64286 0.00000
vt 0.64286 1.00000
vt 0.71429 0.00000
vt 0.71429 1.00000
vt 0.78571 0.00000
vt 0.78571 1.00000
vt 0.85714 0.00000
vt 0.85714 1.00000
vt 0.92857 0.00000
vt 0.92857 1.00000
vt 1.00000 0.50000
vt 0.95048 0.71694
vt 0.81174 0.89092
vt 0.61126 0.98746
vt 0.38874 0.98746
vt 0.18826 0.89092
vt 0.04952 0.71694
vt 0.00000 0.50000
vt 0.04952 0.28306
vt 0.18826 0.10908
vt 0.38874 0.01254
vt 0.61126 0.01254
vt 0.81174 0.10908
vt 0.95048 0.28306
vt 0.00000 0.00000
vt 0.00000 1.00000
vt 0.12500 0.00000
vt 0.12500 1.00000
vt 0.25000 0.00000
vt 0.25000 1.00000
vt 0.37500 0.00000
vt 0.37500 1.00000
vt 0.50000 0.00000
vt 0.50000 1.00000
vt 0.62500 0.00000
vt 0.62500 1.00000
vt 0.75000 0.00000
vt 0.75000 1.00000
vt 0.87500 0.00000
vt 0.87500 1.00000
vt 0.00000 0.00000
vt 1.00000 0.00000
vt 1.00000 1.00000
vt 0.00000 1.00000
vt 0.00000 1.00000
vt 1.00000 1.00000
vt 1.00000 0.00000
vt 0.00000 0.00000
vt 0.00000 0.00000
vt 1.00000 0.00000
vt 1.00000 1.00000
vt 0.00000 1.00000
vt 0.00000 1.00000
vt 1.00000 1.00000
vt 1.00000 0.00000
vt 0.00000 0.00000
vt 0.00000 1.00000
vt 1.00000 1.00000
vt 1.00000 0.00000
vt 0.00000 0.00000
vt 0.00000 0.00000
vt 1.00000 0.00000
vt 1.00000 1.00000
vt 0.00000 1.00000
vt 0.00000 0.00000
vt 0.00000 1.00000
vt 0.12500 0.00000
vt 0.12500 1.00000
vt 0.25000 0.00000
vt 0.25000 1.00000
vt 0.37500 0.00000
vt 0.37500 1.00000
vt 0.50000 0.00000
vt 0.50000 1.00000
vt 0.62500 0.00000
vt 0.62500 1.00000
vt 0.75000 0.00000
vt 0.75000 1.00000
vt 0.87500 0.00000
vt 0.87500 1.00000
vt 0.00000 0.00000
vt 1.00000 0.00000
vt 1.00000 1.00000
vt 0.00000 1.00000
vt 0.00000 1.00000
vt 1.00000 1.00000
vt 1.00000 0.00000
vt 0.00000 0.00000
vt 0.00000 0.00000
vt 1.00000 0.00000
vt 1.00000 1.00000
vt 0.00000 1.00000
vt 0.00000 1.00000
vt 1.00000 1.00000
vt 1.00000 0.00000
vt 0.00000 0.00000
vt 0.00000 1.00000
vt 1.00000 1.00000
vt 1.00000 0.00000
vt 0.00000 0.00000
vt 0.00000 0.00000
vt 1.00000 0.00000
vt 1.00000 1.00000
vt 0.00000 1.00000
vn 0.00000 0.00000 1.00000
vn 0.00000 0.00000 1.00000
vn 0.00000 0.00000 1.00000
vn 0.00000 0.00000 1.00000
vn -0.00000 1.00000 0.00000
vn -1.00000 0.00000 0.00000
vn -0.00000 -1.00000 0.00000
vn 1.00000 0.00000 0.00000
vn 0.00000 -1.00000 0.00000
vn 1.00000 0.00000 0.00000
vn 0.00000 1.00000 0.00000
vn -1.00000 0.00000 0.00000
vn 0.00000 -0.79262 -0.60971
vn 0.64261 0.00000 -0.76619
vn 0.00000 0.79262 -0.60971
vn -0.96562 -0.00000 -0.25997
vn 0.00000 0.00000 -1.00000
vn 0.00000 0.00000 1.00000
vn 0.00000 0.00000 -1.00000
vn -1.00000 0.00000 0.00000
vn 1.00000 0.00000 -0.00000
vn -0.00000 1.00000 0.00000
vn 0.00000 -1.00000 0.00000
vn 0.00000 0.00000 1.00000
vn 0.00000 0.00000 -1.00000
vn -1.00000 0.00000 0.00000
vn 1.00000 0.00000 -0.00000
vn -0.00000 1.00000 0.00000
vn 0.00000 -1.00000 0.00000
vn 0.00000 0.00000 1.00000
vn 0.00000 0.00000 -1.00000
vn -1.00000 0.00000 0.00000
vn 1.00000 0.00000 -0.00000
vn -0.00000 1.00000 0.00000
vn 0.00000 -1.00000 0.00000
vn 0.00000 0.00000 1.00000
vn 0.00000 0.00000 -1.00000
vn -1.00000 0.00000 0.00000
vn 1.00000 0.00000 -0.00000
vn -0.00000 1.00000 0.00000
vn 0.00000 -1.00000 0.00000
vn -0.00000 -0.00000 1.00000
vn -0.00000 -0.08059 0.99675
vn -0.00000 -0.14764 0.98904
vn -0.00000 -0.20106 0.97958
vn -0.00000 -0.24143 0.97042
vn -0.00000 -0.26953 0.96299
vn -0.00000 -0.28607 0.95821
vn 0.00000 -0.29152 0.95656
vn 0.00000 -0.28607 0.95821
vn 0.00000 -0.26953 0.96299
vn 0.00000 -0.24143 0.97042
vn 0.00000 -0.20106 0.97958
vn 0.00000 -0.14764 0.98904
vn 0.00000 -0.08059 0.99675
vn 0.00000 -0.00000 1.00000
vn -0.07535 -0.00000 0.99716
vn -0.06449 -0.06587 0.99574
vn -0.05350 -0.12106 0.99120
vn -0.04254 -0.16546 0.98530
vn -0.03172 -0.19936 0.97941
vn -0.02104 -0.22317 0.97455
vn -0.01049 -0.23727 0.97139
vn 0.00000 -0.24194 0.97029
vn 0.01049 -0.23727 0.97139
vn 0.02104 -0.22317 0.97455
vn 0.03172 -0.19936 0.97941
vn 0.04254 -0.16546 0.98530
vn 0.05350 -0.12106 0.99120
vn 0.06449 -0.06587 0.99574
vn 0.07535 -0.00000 0.99716
vn -0.13477 -0.00000 0.99088
vn -0.11564 -0.05104 0.99198
vn -0.09627 -0.09413 0.99090
vn -0.07684 -0.12913 0.98865
vn -0.05748 -0.15611 0.98607
vn -0.03823 -0.17522 0.98379
vn -0.01909 -0.18661 0.98225
vn 0.00000 -0.19039 0.98171
vn 0.01909 -0.18661 0.98225
vn 0.03823 -0.17522 0.98379
vn 0.05748 -0.15611 0.98607
vn 0.07684 -0.12913 0.98865
vn 0.09627 -0.09413 0.99090
vn 0.11564 -0.05104 0.99198
vn 0.13477 -0.00000 0.99088
vn -0.17844 -0.00000 0.98395
vn -0.15349 -0.03629 0.98748
vn -0.12817 -0.06714 0.98948
vn -0.10263 -0.09240 0.99042
vn -0.07700 -0.11203 0.99072
vn -0.05133 -0.12604 0.99070
vn -0.02566 -0.13442 0.99059
vn 0.00000 -0.13722 0.99054
vn 0.02566 -0.13442 0.99059
vn 0.05133 -0.12604 0.99070
vn 0.07700 -0.11203 0.99072
vn 0.10263 -0.09240 0.99042
vn 0.12817 -0.06714 0.98948
vn 0.15349 -0.03629 0.98748
vn 0.17844 -0.00000 0.98395
vn -0.20699 -0.00000 0.97834
vn -0.17839 -0.02169 0.98372
vn -0.14930 -0.04022 0.98797
vn -0.11984 -0.05549 0.99124
vn -0.09010 -0.06742 0.99365
vn -0.06016 -0.07597 0.99529
vn -0.03011 -0.08112 0.99625
vn 0.00000 -0.08283 0.99656
vn 0.03011 -0.08112 0.99625
vn 0.06016 -0.07597 0.99529
vn 0.09010 -0.06742 0.99365
vn 0.11984 -0.05549 0.99124
vn 0.14930 -0.04022 0.98797
vn 0.17839 -0.02169 0.98372
vn 0.20699 -0.00000 0.97834
vn -0.22107 -0.00000 0.97526
vn -0.19073 -0.00722 0.98162
vn -0.15982 -0.01339 0.98706
vn -0.12844 -0.01850 0.99155
vn -0.09667 -0.02251 0.99506
vn -0.06461 -0.02538 0.99759
vn -0.03235 -0.02712 0.99911
vn 0.00000 -0.02770 0.99962
vn 0.03235 -0.02712 0.99911
vn 0.06461 -0.02538 0.99759
vn 0.09667 -0.02251 0.99506
vn 0.12844 -0.01850 0.99155
vn 0.15982 -0.01339 0.98706
vn 0.19073 -0.00722 0.98162
vn 0.22107 -0.00000 0.97526
vn -0.22107 0.00000 0.97526
vn -0.19073 0.00722 0.98162
vn -0.15982 0.01339 0.98706
vn -0.12844 0.01850 0.99155
vn -0.09667 0.02251 0.99506
vn -0.06461 0.02538 0.99759
vn -0.03235 0.02712 0.99911
vn 0.00000 0.02770 0.99962
vn 0.03235 0.02712 0.99911
vn 0.06461 0.02538 0.99759
vn 0.09667 0.02251 0.99506
vn 0.12844 0.01850 0.99155
vn 0.15982 0.01339 0.98706
vn 0.19073 0.00722 0.98162
vn 0.22107 0.00000 0.97526
vn -0.20699 0.00000 0.97834
vn -0.17839 0.02169 0.98372
vn -0.14930 0.04022 0.98797
vn -0.11984 0.05549 0.99124
vn -0.09010 0.06742 0.99365
vn -0.06016 0.07597 0.99529
vn -0.03011 0.08112 0.99625
vn 0.00000 0.08283 0.99656
vn 0.03011 0.08112 0.99625
vn 0.06016 0.07597 0.99529
vn 0.09010 0.06742 0.99365
vn 0.11984 0.05549 0.99124
vn 0.14930 0.04022 0.98797
vn 0.17839 0.02169 0.98372
vn 0.20699 0.00000 0.97834
vn -0.17844 0.00000 0.98395
vn -0.15349 0.03629 0.98748
vn -0.12817 0.06714 0.98948
vn -0.10263 0.09240 0.99042
vn -0.07700 0.11203 0.99072
vn -0.05133 0.12604 0.99070
vn -0.02566 0.13442 0.99059
vn 0.00000 0.13722 0.99054
vn 0.02566 0.13442 0.99059
vn 0.05133 0.12604 0.99070
vn 0.07700 0.11203 0.99072
vn 0.10263 0.09240 0.99042
vn 0.12817 0.06714 0.98948
vn 0.15349 0.03629 0.98748
vn 0.17844 0.00000 0.98395
vn -0.13477 0.00000 0.99088
vn -0.11564 0.05104 0.99198
vn -0.09627 0.09413 0.99090
vn -0.07684 0.12913 0.98865
vn -0.05748 0.15611 0.98607
vn -0.03823 0.17522 0.98379
vn -0.01909 0.18661 0.98225
vn 0.00000 0.19039 0.98171
vn 0.01909 0.18661 0.98225
vn 0.03823 0.17522 0.98379
vn 0.05748 0.15611 0.98607
vn 0.07684 0.12913 0.98865
vn 0.09627 0.09413 0.99090
vn 0.11564 0.05104 0.99198
vn 0.13477 0.00000 0.99088
vn -0.07535 0.00000 0.99716
vn -0.06449 0.06587 0.99574
vn -0.05350 0.12106 0.99120
vn -0.04254 0.16546 0.98530
vn -0.03172 0.19936 0.97941
vn -0.02104 0.22317 0.97455
vn -0.01049 0.23727 0.97139
vn 0.00000 0.24194 0.97029
vn 0.01049 0.23727 0.97139
vn 0.02104 0.22317 0.97455
vn 0.03172 0.19936 0.97941
vn 0.04254 0.16546 0.98530
vn 0.05350 0.12106 0.99120
vn 0.06449 0.06587 0.99574
vn 0.07535 0.00000 0.99716
vn -0.00000 0.00000 1.00000
vn -0.00000 0.08059 0.99675
vn -0.00000 0.14764 0.98904
vn -0.00000 0.20106 0.97958
vn -0.00000 0.24143 0.97042
vn -0.00000 0.26953 0.96299
vn -0.00000 0.28607 0.95821
vn 0.00000 0.29152 0.95656
vn 0.00000 0.28607 0.95821
vn 0.00000 0.26953 0.96299
vn 0.00000 0.24143 0.97042
vn 0.00000 0.20106 0.97958
vn 0.00000 0.14764 0.98904
vn 0.00000 0.08059 0.99675
vn 0.00000 0.00000 1.00000
vn 1.00000 0.00000 0.00000
vn 1.00000 0.00000 0.00000
vn 0.90097 0.43388 0.00000
vn 0.90097 0.43388 0.00000
vn 0.62349 0.78183 0.00000
vn 0.62349 0.78183 0.00000
vn 0.22252 0.97493 0.00000
vn 0.22252 0.97493 0.00000
vn -0.22252 0.97493 0.00000
vn -0.22252 0.97493 0.00000
vn -0.62349 0.78183 0.00000
vn -0.62349 0.78183 0.00000
vn -0.90097 0.43388 0.00000
vn -0.90097 0.43388 0.00000
vn -1.00000 0.00000 0.00000
vn -1.00000 0.00000 0.00000
vn -0.90097 -0.43388 0.00000
vn -0.90097 -0.43388 0.00000
vn -0.62349 -0.78183 0.00000
vn -0.62349 -0.78183 0.00000
vn -0.22252 -0.97493 0.00000
vn -0.22252 -0.97493 0.00000
vn 0.22252 -0.97493 0.00000
vn 0.22252 -0.97493 0.00000
vn 0.62349 -0.78183 0.00000
vn 0.62349 -0.78183 0.00000
vn 0.90097 -0.43388 0.00000
vn 0.90097 -0.43388 0.00000
vn 0.00000 0.00000 1.00000
vn 0.00000 0.00000 1.00000
vn 0.00000 0.00000 1.00000
vn 0.00000 0.00000 1.00000
vn 0.00000 0.00000 1.00000
vn 0.00000 0.00000 1.00000
vn 0.00000 0.00000 1.00000
vn 0.00000 0.00000 1.00000
vn 0.00000 0.00000 1.00000
vn 0.00000 0.00000 1.00000
vn 0.00000 0.00000 1.00000
vn 0.00000 0.00000 1.00000
vn 0.00000 0.00000 1.00000
vn 0.00000 0.00000 1.00000
vn 1.00000 0.00000 0.00000
vn 1.00000 0.00000 0.00000
vn 0.90097 0.43388 0.00000
vn 0.90097 0.43388 0.00000
vn 0.62349 0.78183 0.00000
vn 0.62349 0.78183 0.00000
vn 0.22252 0.97493 0.00000
vn 0.22252 0.97493 0.00000
vn -0.22252 0.97493 0.00000
vn -0.22252 0.97493 0.00000
vn -0.62349 0.78183 0.00000
vn -0.62349 0.78183 0.00000
vn -0.90097 0.43388 0.00000
vn -0.90097 0.43388 0.00000
vn -1.00000 0.00000 0.00000
vn -1.00000 0.00000 0.00000
vn -0.90097 -0.43388 0.00000
vn -0.90097 -0.43388 0.00000
vn -0.62349 -0.78183 0.00000
vn -0.62349 -0.78183 0.00000
vn -0.22252 -0.97493 0.00000
vn -0.22252 -0.97493 0.00000
vn 0.22252 -0.97493 0.00000
vn 0.22252 -0.97493 0.00000
vn 0.62349 -0.78183 0.00000
vn 0.62349 -0.78183 0.00000
vn 0.90097 -0.43388 0.00000
vn 0.90097 -0.43388 0.00000
vn 0.00000 0.00000 1.00000
vn 0.00000 0.00000 1.00000
vn 0.00000 0.00000 1.00000
vn 0.00000 0.00000 1.00000
vn 0.00000 0.00000 1.00000
vn 0.00000 0.00000 1.00000
vn 0.00000 0.00000 1.00000
vn 0.00000 0.00000 1.00000
vn 0.00000 0.00000 1.00000
vn 0.00000 0.00000 1.00000
vn 0.00000 0.00000 1.00000
vn 0.00000 0.00000 1.00000
vn 0.00000 0.00000 1.00000
vn 0.00000 0.00000 1.00000
vn 1.00000 0.00000 0.00000
vn 1.00000 0.00000 0.00000
vn 0.90097 0.43388 0.00000
vn 0.90097 0.43388 0.00000
vn 0.62349 0.78183 0.00000
vn 0.62349 0.78183 0.00000
vn 0.22252 0.97493 0.00000
vn 0.22252 0.97493 0.00000
vn -0.22252 0.97493 0.00000
vn -0.22252 0.97493 0.00000
vn -0.62349 0.78183 0.00000
vn -0.62349 0.78183 0.00000
vn -0.90097 0.43388 0.00000
vn -0.90097 0.43388 0.00000
vn -1.00000 0.00000 0.00000
vn -1.00000 0.00000 0.00000
vn -0.90097 -0.43388 0.00000
vn -0.90097 -0.43388 0.00000
vn -0.62349 -0.78183 0.00000
vn -0.62349 -0.78183 0.00000
vn -0.22252 -0.97493 0.00000
vn -0.22252 -0.97493 0.00000
vn 0.22252 -0.97493 0.00000
vn 0.22252 -0.97493 0.00000
vn 0.62349 -0.78183 0.00000
vn 0.62349 -0.78183 0.00000
vn 0.90097 -0.43388 0.00000
vn 0.90097 -0.43388 0.00000
vn 0.00000 0.00000 1.00000
vn 0.00000 0.00000 1.00000
vn 0.00000 0.00000 1.00000
vn 0.00000 0.00000 1.00000
vn 0.00000 0.00000 1.00000
vn 0.00000 0.00000 1.00000
vn 0.00000 0.00000 1.00000
vn 0.00000 0.00000 1.00000
vn 0.00000 0.00000 1.00000
vn 0.00000 0.00000 1.00000
vn 0.00000 0.00000 1.00000
vn 0.00000 0.00000 1.00000
vn 0.00000 0.00000 1.00000
vn 0.00000 0.00000 1.00000
vn 0.77971 0.62613 -0.00000
vn 0.77971 0.62613 -0.00000
vn 0.68134 0.28086 -0.67594
vn 0.68134 0.28086 -0.67594
vn 0.18385 -0.22894 -0.95592
vn 0.18385 -0.22894 -0.95592
vn -0.42134 -0.60463 -0.67594
vn -0.42134 -0.60463 -0.67594
vn -0.77971 -0.62613 -0.00000
vn -0.77971 -0.62613 -0.00000
vn -0.68134 -0.28086 0.67594
vn -0.68134 -0.28086 0.67594
vn -0.18385 0.22894 0.95592
vn -0.18385 0.22894 0.95592
vn 0.42134 0.60463 0.67594
vn 0.42134 0.60463 0.67594
vn 0.00000 0.00000 1.00000
vn 0.00000 0.00000 -1.00000
vn -1.00000 0.00000 0.00000
vn 1.00000 0.00000 -0.00000
vn -0.00000 1.00000 0.00000
vn 0.00000 -1.00000 0.00000
vn 0.77971 -0.62613 0.00000
vn 0.77971 -0.62613 0.00000
vn 0.42134 -0.60463 -0.67594
vn 0.42134 -0.60463 -0.67594
vn -0.18385 -0.22894 -0.95592
vn -0.18385 -0.22894 -0.95592
vn -0.68134 0.28086 -0.67594
vn -0.68134 0.28086 -0.67594
vn -0.77971 0.62613 -0.00000
vn -0.77971 0.62613 -0.00000
vn -0.42134 0.60463 0.67594
vn -0.42134 0.60463 0.67594
vn 0.18385 0.22894 0.95592
vn 0.18385 0.22894 0.95592
vn 0.68134 -0.28086 0.67594
vn 0.68134 -0.28086 0.67594
vn 0.00000 0.00000 1.00000
vn 0.00000 0.00000 -1.00000
vn -1.00000 0.00000 0.00000
vn 1.00000 0.00000 -0.00000
vn -0.00000 1.00000 0.00000
vn 0.00000 -1.00000 0.00000
g TV_Body
usemtl TV_Body
f 1/1/1 2/2/1 3/3/1 4/4/1
f 5/5/2 6/6/2 7/7/2 8/8/2
f 9/9/3 10/10/3 11/11/3 12/12/3
f 13/13/4 14/14/4 15/15/4 16/16/4
f 17/17/5 18/18/5 19/19/5 20/20/5
f 21/21/6 22/22/6 23/23/6 24/24/6
f 25/25/7 26/26/7 27/27/7 28/28/7
f 29/29/8 30/30/8 31/31/8 32/32/8
f 33/33/9 34/34/9 35/35/9 36/36/9
f 37/37/10 38/38/10 39/39/10 40/40/10
f 41/41/11 42/42/11 43/43/11 44/44/11
f 45/45/12 46/46/12 47/47/12 48/48/12
f 49/49/13 50/50/13 51/51/13 52/52/13
f 53/53/14 54/54/14 55/55/14 56/56/14
f 57/57/15 58/58/15 59/59/15 60/60/15
f 61/61/16 62/62/16 63/63/16 64/64/16
f 65/65/17 66/66/17 67/67/17 68/68/17
f 69/69/18 70/70/18 71/71/18 72/72/18
f 73/73/19 74/74/19 75/75/19 76/76/19
f 77/77/20 78/78/20 79/79/20 80/80/20
f 81/81/21 82/82/21 83/83/21 84/84/21
f 85/85/22 86/86/22 87/87/22 88/88/22
f 89/89/23 90/90/23 91/91/23 92/92/23
f 93/93/24 94/94/24 95/95/24 96/96/24
f 97/97/25 98/98/25 99/99/25 100/100/25
f 101/101/26 102/102/26 103/103/26 104/104/26
f 105/105/27 106/106/27 107/107/27 108/108/27
f 109/109/28 110/110/28 111/111/28 112/112/28
f 113/113/29 114/114/29 115/115/29 116/116/29
f 117/117/30 118/118/30 119/119/30 120/120/30
f 121/121/31 122/122/31 123/123/31 124/124/31
f 125/125/32 126/126/32 127/127/32 128/128/32
f 129/129/33 130/130/33 131/131/33 132/132/33
f 133/133/34 134/134/34 135/135/34 136/136/34
f 137/137/35 138/138/35 139/139/35 140/140/35
f 141/141/36 142/142/36 143/143/36 144/144/36
f 145/145/37 146/146/37 147/147/37 148/148/37
f 149/149/38 150/150/38 151/151/38 152/152/38
f 153/153/39 154/154/39 155/155/39 156/156/39
f 157/157/40 158/158/40 159/159/40 160/160/40
f 161/161/41 162/162/41 163/163/41 164/164/41
g TV_Screen
usemtl TV_Screen
f 165/165/42 166/166/43 181/181/58 180/180/57
f 166/166/43 167/167/44 182/182/59 181/181/58
f 167/167/44 168/168/45 183/183/60 182/182/59
f 168/168/45 169/169/46 184/184/61 183/183/60
f 169/169/46 170/170/47 185/185/62 184/184/61
f 170/170/47 171/171/48 186/186/63 185/185/62
f 171/171/48 172/172/49 187/187/64 186/186/63
f 172/172/49 173/173/50 188/188/65 187/187/64
f 173/173/50 174/174/51 189/189/66 188/188/65
f 174/174/51 175/175/52 190/190/67 189/189/66
f 175/175/52 176/176/53 191/191/68 190/190/67
f 176/176/53 177/177/54 192/192/69 191/191/68
f 177/177/54 178/178/55 193/193/70 192/192/69
f 178/178/55 179/179/56 194/194/71 193/193/70
f 180/180/57 181/181/58 196/196/73 195/195/72
f 181/181/58 182/182/59 197/197/74 196/196/73
f 182/182/59 183/183/60 198/198/75 197/197/74
f 183/183/60 184/184/61 199/199/76 198/198/75
f 184/184/61 185/185/62 200/200/77 199/199/76
f 185/185/62 186/186/63 201/201/78 200/200/77
f 186/186/63 187/187/64 202/202/79 201/201/78
f 187/187/64 188/188/65 203/203/80 202/202/79
f 188/188/65 189/189/66 204/204/81 203/203/80
f 189/189/66 190/190/67 205/205/82 204/204/81
f 190/190/67 191/191/68 206/206/83 205/205/82
f 191/191/68 192/192/69 207/207/84 206/206/83
f 192/192/69 193/193/70 208/208/85 207/207/84
f 193/193/70 194/194/71 209/209/86 208/208/85
f 195/195/72 196/196/73 211/211/88 210/210/87
f 196/196/73 197/197/74 212/212/89 211/211/88
f 197/197/74 198/198/75 213/213/90 212/212/89
f 198/198/75 199/199/76 214/214/91 213/213/90
f 199/199/76 200/200/77 215/215/92 214/214/91
f 200/200/77 201/201/78 216/216/93 215/215/92
f 201/201/78 202/202/79 217/217/94 216/216/93
f 202/202/79 203/203/80 218/218/95 217/217/94
f 203/203/80 204/204/81 219/219/96 218/218/95
f 204/204/81 205/205/82 220/220/97 219/219/96
f 205/205/82 206/206/83 221/221/98 220/220/97
f 206/206/83 207/207/84 222/222/99 221/221/98
f 207/207/84 208/208/85 223/223/100 222/222/99
f 208/208/85 209/209/86 224/224/101 223/223/100
f 210/210/87 211/211/88 226/226/103 225/225/102
f 211/211/88 212/212/89 227/227/104 226/226/103
f 212/212/89 213/213/90 228/228/105 227/227/104
f 213/213/90 214/214/91 229/229/106 228/228/105
f 214/214/91 215/215/92 230/230/107 229/229/106
f 215/215/92 216/216/93 231/231/108 230/230/107
f 216/216/93 217/217/94 232/232/109 231/231/108
f 217/217/94 218/218/95 233/233/110 232/232/109
f 218/218/95 219/219/96 234/234/111 233/233/110
f 219/219/96 220/220/97 235/235/112 234/234/111
f 220/220/97 221/221/98 236/236/113 235/235/112
f 221/221/98 222/222/99 237/237/114 236/236/113
f 222/222/99 223/223/100 238/238/115 237/237/114
f 223/223/100 224/224/101 239/239/116 238/238/115
f 225/225/102 226/226/103 241/241/118 240/240/117
f 226/226/103 227/227/104 242/242/119 241/241/118
f 227/227/104 228/228/105 243/243/120 242/242/119
f 228/228/105 229/229/106 244/244/121 243/243/120
f 229/229/106 230/230/107 245/245/122 244/244/121
f 230/230/107 231/231/108 246/246/123 245/245/122
f 231/231/108 232/232/109 247/247/124 246/246/123
f 232/232/109 233/233/110 248/248/125 247/247/124
f 233/233/110 234/234/111 249/249/126 248/248/125
f 234/234/111 235/235/112 250/250/127 249/249/126
f 235/235/112 236/236/113 251/251/128 250/250/127
f 236/236/113 237/237/114 252/252/129 251/251/128
f 237/237/114 238/238/115 253/253/130 252/252/129
f 238/238/115 239/239/116 254/254/131 253/253/130
f 240/240/117 241/241/118 256/256/133 255/255/132
f 241/241/118 242/242/119 257/257/134 256/256/133
f 242/242/119 243/243/120 258/258/135 257/257/134
f 243/243/120 244/244/121 259/259/136 258/258/135
f 244/244/121 245/245/122 260/260/137 259/259/136
f 245/245/122 246/246/123 261/261/138 260/260/137
f 246/246/123 247/247/124 262/262/139 261/261/138
f 247/247/124 248/248/125 263/263/140 262/262/139
f 248/248/125 249/249/126 264/264/141 263/263/140
f 249/249/126 250/250/127 265/265/142 264/264/141
f 250/250/127 251/251/128 266/266/143 265/265/142
f 251/251/128 252/252/129 267/267/144 266/266/143
f 252/252/129 253/253/130 268/268/145 267/267/144
f 253/253/130 254/254/131 269/269/146 268/268/145
f 255/255/132 256/256/133 271/271/148 270/270/147
f 256/256/133 257/257/134 272/272/149 271/271/148
f 257/257/134 258/258/135 273/273/150 272/272/149
f 258/258/135 259/259/136 274/274/151 273/273/150
f 259/259/136 260/260/137 275/275/152 274/274/151
f 260/260/137 261/261/138 276/276/153 275/275/152
f 261/261/138 262/262/139 277/277/154 276/276/153
f 262/262/139 263/263/140 278/278/155 277/277/154
f 263/263/140 264/264/141 279/279/156 278/278/155
f 264/264/141 265/265/142 280/280/157 279/279/156
f 265/265/142 266/266/143 281/281/158 280/280/157
f 266/266/143 267/267/144 282/282/159 281/281/158
f 267/267/144 268/268/145 283/283/160 282/282/159
f 268/268/145 269/269/146 284/284/161 283/283/160
f 270/270/147 271/271/148 286/286/163 285/285/162
f 271/271/148 272/272/149 287/287/164 286/286/163
f 272/272/149 273/273/150 288/288/165 287/287/164
f 273/273/150 274/274/151 289/289/166 288/288/165
f 274/274/151 275/275/152 290/290/167 289/289/166
f 275/275/152 276/276/153 291/291/168 290/290/167
f 276/276/153 277/277/154 292/292/169 291/291/168
f 277/277/154 278/278/155 293/293/170 292/292/169
f 278/278/155 279/279/156 294/294/171 293/293/170
f 279/279/156 280/280/157 295/295/172 294/294/171
f 280/280/157 281/281/158 296/296/173 295/295/172
f 281/281/158 282/282/159 297/297/174 296/296/173
f 282/282/159 283/283/160 298/298/175 297/297/174
f 283/283/160 284/284/161 299/299/176 298/298/175
f 285/285/162 286/286/163 301/301/178 300/300/177
f 286/286/163 287/287/164 302/302/179 301/301/178
f 287/287/164 288/288/165 303/303/180 302/302/179
f 288/288/165 289/289/166 304/304/181 303/303/180
f 289/289/166 290/290/167 305/305/182 304/304/181
f 290/290/167 291/291/168 306/306/183 305/305/182
f 291/291/168 292/292/169 307/307/184 306/306/183
f 292/292/169 293/293/170 308/308/185 307/307/184
f 293/293/170 294/294/171 309/309/186 308/308/185
f 294/294/171 295/295/172 310/310/187 309/309/186
f 295/295/172 296/296/173 311/311/188 310/310/187
f 296/296/173 297/297/174 312/312/189 311/311/188
f 297/297/174 298/298/175 313/313/190 312/312/189
f 298/298/175 299/299/176 314/314/191 313/313/190
f 300/300/177 301/301/178 316/316/193 315/315/192
f 301/301/178 302/302/179 317/317/194 316/316/193
f 302/302/179 303/303/180 318/318/195 317/317/194
f 303/303/180 304/304/181 319/319/196 318/318/195
f 304/304/181 305/305/182 320/320/197 319/319/196
f 305/305/182 306/306/183 321/321/198 320/320/197
f 306/306/183 307/307/184 322/322/199 321/321/198
f 307/307/184 308/308/185 323/323/200 322/322/199
f 308/308/185 309/309/186 324/324/201 323/323/200
f 309/309/186 310/310/187 325/325/202 324/324/201
f 310/310/187 311/311/188 326/326/203 325/325/202
f 311/311/188 312/312/189 327/327/204 326/326/203
f 312/312/189 313/313/190 328/328/205 327/327/204
f 313/313/190 314/314/191 329/329/206 328/328/205
f 315/315/192 316/316/193 331/331/208 330/330/207
f 316/316/193 317/317/194 332/332/209 331/331/208
f 317/317/194 318/318/195 333/333/210 332/332/209
f 318/318/195 319/319/196 334/334/211 333/333/210
f 319/319/196 320/320/197 335/335/212 334/334/211
f 320/320/197 321/321/198 336/336/213 335/335/212
f 321/321/198 322/322/199 337/337/214 336/336/213
f 322/322/199 323/323/200 338/338/215 337/337/214
f 323/323/200 324/324/201 339/339/216 338/338/215
f 324/324/201 325/325/202 340/340/217 339/339/216
f 325/325/202 326/326/203 341/341/218 340/340/217
f 326/326/203 327/327/204 342/342/219 341/341/218
f 327/327/204 328/328/205 343/343/220 342/342/219
f 328/328/205 329/329/206 344/344/221 343/343/220
g TV_Knob
usemtl TV_Knob
f 345/345/222 347/347/224 348/348/225 346/346/223
f 347/347/224 349/349/226 350/350/227 348/348/225
f 349/349/226 351/351/228 352/352/229 350/350/227
f 351/351/228 353/353/230 354/354/231 352/352/229
f 353/353/230 355/355/232 356/356/233 354/354/231
f 355/355/232 357/357/234 358/358/235 356/356/233
f 357/357/234 359/359/236 360/360/237 358/358/235
f 359/359/236 361/361/238 362/362/239 360/360/237
f 361/361/238 363/363/240 364/364/241 362/362/239
f 363/363/240 365/365/242 366/366/243 364/364/241
f 365/365/242 367/367/244 368/368/245 366/366/243
f 367/367/244 369/369/246 370/370/247 368/368/245
f 369/369/246 371/371/248 372/372/249 370/370/247
f 371/371/248 345/345/222 346/346/223 372/372/249
f 373/373/250 374/374/251 375/375/252 376/376/253 377/377/254 378/378/255 379/379/256 380/380/257 381/381/258 382/382/259 383/383/260 384/384/261 385/385/262 386/386/263
f 387/387/264 389/389/266 390/390/267 388/388/265
f 389/389/266 391/391/268 392/392/269 390/390/267
f 391/391/268 393/393/270 394/394/271 392/392/269
f 393/393/270 395/395/272 396/396/273 394/394/271
f 395/395/272 397/397/274 398/398/275 396/396/273
f 397/397/274 399/399/276 400/400/277 398/398/275
f 399/399/276 401/401/278 402/402/279 400/400/277
f 401/401/278 403/403/280 404/404/281 402/402/279
f 403/403/280 405/405/282 406/406/283 404/404/281
f 405/405/282 407/407/284 408/408/285 406/406/283
f 407/407/284 409/409/286 410/410/287 408/408/285
f 409/409/286 411/411/288 412/412/289 410/410/287
f 411/411/288 413/413/290 414/414/291 412/412/289
f 413/413/290 387/387/264 388/388/265 414/414/291
f 415/415/292 416/416/293 417/417/294 418/418/295 419/419/296 420/420/297 421/421/298 422/422/299 423/423/300 424/424/301 425/425/302 426/426/303 427/427/304 428/428/305
f 429/429/306 431/431/308 432/432/309 430/430/307
f 431/431/308 433/433/310 434/434/311 432/432/309
f 433/433/310 435/435/312 436/436/313 434/434/311
f 435/435/312 437/437/314 438/438/315 436/436/313
f 437/437/314 439/439/316 440/440/317 438/438/315
f 439/439/316 441/441/318 442/442/319 440/440/317
f 441/441/318 443/443/320 444/444/321 442/442/319
f 443/443/320 445/445/322 446/446/323 444/444/321
f 445/445/322 447/447/324 448/448/325 446/446/323
f 447/447/324 449/449/326 450/450/327 448/448/325
f 449/449/326 451/451/328 452/452/329 450/450/327
f 451/451/328 453/453/330 454/454/331 452/452/329
f 453/453/330 455/455/332 456/456/333 454/454/331
f 455/455/332 429/429/306 430/430/307 456/456/333
f 457/457/334 458/458/335 459/459/336 460/460/337 461/461/338 462/462/339 463/463/340 464/464/341 465/465/342 466/466/343 467/467/344 468/468/345 469/469/346 470/470/347
g TV_Antenna
usemtl TV_Antenna
f 471/471/348 473/473/350 474/474/351 472/472/349
f 473/473/350 475/475/352 476/476/353 474/474/351
f 475/475/352 477/477/354 478/478/355 476/476/353
f 477/477/354 479/479/356 480/480/357 478/478/355
f 479/479/356 481/481/358 482/482/359 480/480/357
f 481/481/358 483/483/360 484/484/361 482/482/359
f 483/483/360 485/485/362 486/486/363 484/484/361
f 485/485/362 471/471/348 472/472/349 486/486/363
f 487/487/364 488/488/364 489/489/364 490/490/364
f 491/491/365 492/492/365 493/493/365 494/494/365
f 495/495/366 496/496/366 497/497/366 498/498/366
f 499/499/367 500/500/367 501/501/367 502/502/367
f 503/503/368 504/504/368 505/505/368 506/506/368
f 507/507/369 508/508/369 509/509/369 510/510/369
f 511/511/370 513/513/372 514/514/373 512/512/371
f 513/513/372 515/515/374 516/516/375 514/514/373
f 515/515/374 517/517/376 518/518/377 516/516/375
f 517/517/376 519/519/378 520/520/379 518/518/377
f 519/519/378 521/521/380 522/522/381 520/520/379
f 521/521/380 523/523/382 524/524/383 522/522/381
f 523/523/382 525/525/384 526/526/385 524/524/383
f 525/525/384 511/511/370 512/512/371 526/526/385
f 527/527/386 528/528/386 529/529/386 530/530/386
f 531/531/387 532/532/387 533/533/387 534/534/387
f 535/535/388 536/536/388 537/537/388 538/538/388
f 539/539/389 540/540/389 541/541/389 542/542/389
f 543/543/390 544/544/390 545/545/390 546/546/390
f 547/547/391 548/548/391 549/549/391 550/550/391
